<?xml version="1.0" encoding="UTF-8" standalone="no"?>
<!DOCTYPE svg PUBLIC "-//W3C//DTD SVG 1.1//EN" "http://www.w3.org/Graphics/SVG/1.1/DTD/svg11.dtd">
<svg width="100%" height="100%" viewBox="0 0 1000 1000" version="1.1" xmlns="http://www.w3.org/2000/svg" xmlns:xlink="http://www.w3.org/1999/xlink" xml:space="preserve" xmlns:serif="http://www.serif.com/" style="fill-rule:evenodd;clip-rule:evenodd;stroke-linejoin:round;stroke-miterlimit:2;">
    <g transform="matrix(1.69991,0.455488,-0.455488,1.69991,170.157,-163.255)">
        <g transform="matrix(-0.0495682,0.814723,-0.814723,-0.0495682,582.668,0.376062)">
            <path d="M285.82,315.962C290.621,273.804 271.493,189.63 323.656,178.502C374.24,167.71 427.675,185.321 482.462,197.129C537.249,208.936 620.506,246.905 612.795,347.159C607.037,422.031 515.832,449.035 490.496,454.011C449.38,462.086 337.601,458.141 307.446,444.435C258.09,422 280.446,363.149 285.82,315.962Z" style="fill:url(#_Linear1);"/>
        </g>
        <g id="path3061" transform="matrix(0.823177,0,0,-0.823177,43.3881,571.727)">
            <path d="M494.344,253.044C479.218,241.352 454.308,233.118 420.146,230.446C382.46,227.499 336.617,231.522 287.448,243.707C238.3,255.912 195.971,273.772 164.139,293.957C135.301,312.255 117.23,331.121 109.426,348.484C102.694,363.498 103.862,376.901 111.615,387.977C118.272,397.472 129.73,405.188 145.186,410.912C158.602,415.872 174.09,418.973 190.302,420.593C191.47,420.709 197.875,421.41 199.881,421.253C245.51,417.669 445.588,362.056 456.868,354.581C470.447,345.579 482.688,335.603 492.216,324.947C503.188,312.663 509.68,300.488 511.086,288.981C512.704,275.563 507.407,263.164 494.344,253.044M570.742,225.374C579.595,222.977 588.464,220.57 597.351,218.159C596.597,222.703 595.873,227.062 595.189,231.243C586.344,237.454 577.867,243.426 569.724,249.146C569.574,252.592 569.439,255.908 569.297,259.106C575.515,258.238 581.685,257.385 587.807,256.535C585.443,260.442 583.181,264.204 580.997,267.822C573.196,272.149 565.622,276.347 558.27,280.423C556.663,283.539 555.105,286.543 553.6,289.445C557.698,289.476 561.738,289.512 565.722,289.541C562.62,292.779 559.621,295.903 556.722,298.923C550.119,301.896 543.648,304.814 537.301,307.672C534.889,310.371 532.547,312.979 530.288,315.517C532.825,316.034 535.316,316.546 537.764,317.047C534.389,319.691 531.112,322.257 527.935,324.754C522.426,326.791 516.981,328.804 511.601,330.797C508.79,333.096 506.055,335.327 503.398,337.503C504.791,338.288 506.155,339.054 507.49,339.808C504.06,341.976 500.713,344.094 497.443,346.155C492.854,347.535 488.286,348.906 483.74,350.274C480.735,352.225 477.8,354.135 474.931,355.995C475.484,356.92 476.025,357.825 476.557,358.71C473.148,360.507 469.807,362.265 466.532,363.994C466.221,364.068 461.142,365.246 460.478,365.471C448.173,369.641 252.553,418.472 207.378,430.689C205.571,431.177 197.28,433.271 196.85,433.382C193.375,433.382 189.833,433.383 186.222,433.386C186.39,432.394 186.561,431.38 186.728,430.345C182.935,430.316 179.063,430.287 175.113,430.255C170.645,431.138 166.154,432.025 161.645,432.917C158.055,432.637 154.379,432.352 150.616,432.059C151.519,430.824 152.449,429.572 153.394,428.292C149.455,427.936 145.417,427.57 141.274,427.196C135.883,427.928 130.43,428.665 124.919,429.412C121.265,428.754 117.507,428.074 113.642,427.373C115.585,425.882 117.562,424.362 119.571,422.814C115.575,422.004 111.457,421.177 107.212,420.318C100.7,420.764 94.064,421.219 87.304,421.682C83.705,420.49 79.987,419.263 76.146,417.99C79.541,416.231 82.983,414.453 86.472,412.646C82.598,411.207 78.584,409.728 74.428,408.19C66.6,408.109 58.55,408.024 50.272,407.938C47.032,405.994 43.671,403.98 40.184,401.892C45.673,399.938 51.204,397.971 56.776,395.988C53.434,393.682 49.967,391.275 46.352,388.783C37.089,387.757 27.462,386.69 17.449,385.581C15.144,382.585 12.768,379.454 10.272,376.211C18.719,374.303 27.148,372.392 35.563,370.487C33.498,367 31.363,363.354 29.12,359.559C18.837,356.94 8.021,354.2 -3.364,351.305C-3.634,346.993 -3.905,342.504 -4.178,337.832C7.872,336.603 19.745,335.396 31.443,334.202C31.891,329.369 32.362,324.335 32.83,319.083C22.555,313.969 11.622,308.517 -0.044,302.707C3.363,296.976 6.906,291.037 10.555,284.857C26.387,285.536 41.718,286.184 56.57,286.816C61.04,280.754 65.667,274.461 70.468,267.927C62.708,259.447 54.359,250.333 45.363,240.503C54.176,234.032 63.231,227.389 72.532,220.559C90.118,224.961 106.8,229.146 122.655,233.111C132.135,226.779 141.871,220.295 151.857,213.63C150.015,201.919 148.04,189.285 145.882,175.617C159.973,170.292 174.215,164.933 188.604,159.52C203.029,168.852 216.477,177.539 229.031,185.667C242.309,180.85 255.71,175.988 269.242,171.096C275.13,158.078 281.438,144.127 288.221,129.142C303.95,127.127 319.522,125.143 334.938,123.173C341.379,136.2 347.32,148.229 352.822,159.366C366.319,157.469 379.7,155.594 392.96,153.733C404.645,142.272 416.977,130.187 429.998,117.416C442.449,119.218 454.552,121.003 466.326,122.712C464.194,136.301 462.245,148.869 460.415,160.522C470.711,161.552 480.761,162.578 490.576,163.561C503.888,155.392 517.656,146.938 531.913,138.196C538.883,142.398 545.552,146.489 551.989,150.392C544.551,162.009 537.607,172.857 531.102,183.004C537.069,185.851 542.822,188.635 548.4,191.307C559.963,186.506 571.711,181.629 583.646,176.668C585.857,181.508 587.979,186.141 590.008,190.586C580.918,199.281 572.305,207.506 564.143,215.31C566.43,218.785 568.62,222.143 570.742,225.374" style="fill:rgb(0,141,158);fill-rule:nonzero;"/>
        </g>
        <g transform="matrix(0.81623,0,0,0.81623,40.336,52.7932)">
            <path d="M212.796,200.901C223.508,197.923 463.991,259.831 468.34,266.766C468.461,266.959 468.376,280.899 468.214,280.979C468.052,281.059 467.797,280.784 467.71,280.942C464.534,286.745 214.357,219.176 205.015,211.328C204.827,211.341 204.647,211.246 204.551,211.083C204.456,210.92 212.629,200.948 212.796,200.901Z" style="fill:rgb(255,121,32);"/>
        </g>
        <g transform="matrix(-0.0495682,0.814723,-0.814723,-0.0495682,585.669,27.3866)">
            <path d="M113.923,299.469C114.061,325.042 135.734,346.714 153.446,346.36C171.157,346.005 171.629,334.906 178.478,334.788C185.326,334.67 196.543,342.345 198.787,352.736C201.03,363.126 207.17,374.934 222.638,376.941C238.106,378.948 263.821,374.352 272.82,327.94C281.086,285.314 265.381,253.67 217.207,249.656C169.032,245.641 113.674,253.31 113.923,299.469Z" style="fill:rgb(64,50,0);"/>
        </g>
    </g>
    <defs>
        <linearGradient id="_Linear1" x1="0" y1="0" x2="1" y2="0" gradientUnits="userSpaceOnUse" gradientTransform="matrix(226.547,51.2606,-51.2606,226.547,367.192,311.123)"><stop offset="0" style="stop-color:rgb(255,121,32);stop-opacity:1"/><stop offset="1" style="stop-color:rgb(255,121,32);stop-opacity:1"/></linearGradient>
    </defs>
</svg>
