<?xml version="1.0" encoding="UTF-8" standalone="no"?>
<!DOCTYPE svg PUBLIC "-//W3C//DTD SVG 1.1//EN" "http://www.w3.org/Graphics/SVG/1.1/DTD/svg11.dtd">
<svg width="100%" height="100%" viewBox="0 0 2200 550" version="1.1" xmlns="http://www.w3.org/2000/svg" xmlns:xlink="http://www.w3.org/1999/xlink" xml:space="preserve" xmlns:serif="http://www.serif.com/" style="fill-rule:evenodd;clip-rule:evenodd;stroke-linejoin:round;stroke-miterlimit:2;">
    <g transform="matrix(1,0,0,1,0,-650)">
        <g id="_-Flat" serif:id=" Flat" transform="matrix(1.25266,0,0,1.05998,-56.7804,-40.0025)">
            <rect x="45.328" y="650.961" width="1756.27" height="518.88" style="fill:none;"/>
            <g transform="matrix(0.798304,0,0,0.943418,45.328,650.961)">
                <g transform="matrix(1.17587,0.315073,-0.315073,1.17587,80.5021,-176.94)">
                    <g transform="matrix(-0.0495682,0.814723,-0.814723,-0.0495682,582.668,0.376062)">
                        <path d="M285.82,315.962C290.621,273.804 271.493,189.63 323.656,178.502C374.24,167.71 427.675,185.321 482.462,197.129C537.249,208.936 620.506,246.905 612.795,347.159C607.037,422.031 515.832,449.035 490.496,454.011C449.38,462.086 337.601,458.141 307.446,444.435C258.09,422 280.446,363.149 285.82,315.962Z" style="fill:url(#_Linear1);"/>
                    </g>
                    <g id="path3061" transform="matrix(0.823177,0,0,-0.823177,43.3881,571.727)">
                        <path d="M494.344,253.044C479.218,241.352 454.308,233.118 420.146,230.446C382.46,227.499 336.617,231.522 287.448,243.707C238.3,255.912 195.971,273.772 164.139,293.957C135.301,312.255 117.23,331.121 109.426,348.484C102.694,363.498 103.862,376.901 111.615,387.977C118.272,397.472 129.73,405.188 145.186,410.912C158.602,415.872 174.09,418.973 190.302,420.593C191.47,420.709 197.875,421.41 199.881,421.253C245.51,417.669 445.588,362.056 456.868,354.581C470.447,345.579 482.688,335.603 492.216,324.947C503.188,312.663 509.68,300.488 511.086,288.981C512.704,275.563 507.407,263.164 494.344,253.044M570.742,225.374C579.595,222.977 588.464,220.57 597.351,218.159C596.597,222.703 595.873,227.062 595.189,231.243C586.344,237.454 577.867,243.426 569.724,249.146C569.574,252.592 569.439,255.908 569.297,259.106C575.515,258.238 581.685,257.385 587.807,256.535C585.443,260.442 583.181,264.204 580.997,267.822C573.196,272.149 565.622,276.347 558.27,280.423C556.663,283.539 555.105,286.543 553.6,289.445C557.698,289.476 561.738,289.512 565.722,289.541C562.62,292.779 559.621,295.903 556.722,298.923C550.119,301.896 543.648,304.814 537.301,307.672C534.889,310.371 532.547,312.979 530.288,315.517C532.825,316.034 535.316,316.546 537.764,317.047C534.389,319.691 531.112,322.257 527.935,324.754C522.426,326.791 516.981,328.804 511.601,330.797C508.79,333.096 506.055,335.327 503.398,337.503C504.791,338.288 506.155,339.054 507.49,339.808C504.06,341.976 500.713,344.094 497.443,346.155C492.854,347.535 488.286,348.906 483.74,350.274C480.735,352.225 477.8,354.135 474.931,355.995C475.484,356.92 476.025,357.825 476.557,358.71C473.148,360.507 469.807,362.265 466.532,363.994C466.221,364.068 461.142,365.246 460.478,365.471C448.173,369.641 252.553,418.472 207.378,430.689C205.571,431.177 197.28,433.271 196.85,433.382C193.375,433.382 189.833,433.383 186.222,433.386C186.39,432.394 186.561,431.38 186.728,430.345C182.935,430.316 179.063,430.287 175.113,430.255C170.645,431.138 166.154,432.025 161.645,432.917C158.055,432.637 154.379,432.352 150.616,432.059C151.519,430.824 152.449,429.572 153.394,428.292C149.455,427.936 145.417,427.57 141.274,427.196C135.883,427.928 130.43,428.665 124.919,429.412C121.265,428.754 117.507,428.074 113.642,427.373C115.585,425.882 117.562,424.362 119.571,422.814C115.575,422.004 111.457,421.177 107.212,420.318C100.7,420.764 94.064,421.219 87.304,421.682C83.705,420.49 79.987,419.263 76.146,417.99C79.541,416.231 82.983,414.453 86.472,412.646C82.598,411.207 78.584,409.728 74.428,408.19C66.6,408.109 58.55,408.024 50.272,407.938C47.032,405.994 43.671,403.98 40.184,401.892C45.673,399.938 51.204,397.971 56.776,395.988C53.434,393.682 49.967,391.275 46.352,388.783C37.089,387.757 27.462,386.69 17.449,385.581C15.144,382.585 12.768,379.454 10.272,376.211C18.719,374.303 27.148,372.392 35.563,370.487C33.498,367 31.363,363.354 29.12,359.559C18.837,356.94 8.021,354.2 -3.364,351.305C-3.634,346.993 -3.905,342.504 -4.178,337.832C7.872,336.603 19.745,335.396 31.443,334.202C31.891,329.369 32.362,324.335 32.83,319.083C22.555,313.969 11.622,308.517 -0.044,302.707C3.363,296.976 6.906,291.037 10.555,284.857C26.387,285.536 41.718,286.184 56.57,286.816C61.04,280.754 65.667,274.461 70.468,267.927C62.708,259.447 54.359,250.333 45.363,240.503C54.176,234.032 63.231,227.389 72.532,220.559C90.118,224.961 106.8,229.146 122.655,233.111C132.135,226.779 141.871,220.295 151.857,213.63C150.015,201.919 148.04,189.285 145.882,175.617C159.973,170.292 174.215,164.933 188.604,159.52C203.029,168.852 216.477,177.539 229.031,185.667C242.309,180.85 255.71,175.988 269.242,171.096C275.13,158.078 281.438,144.127 288.221,129.142C303.95,127.127 319.522,125.143 334.938,123.173C341.379,136.2 347.32,148.229 352.822,159.366C366.319,157.469 379.7,155.594 392.96,153.733C404.645,142.272 416.977,130.187 429.998,117.416C442.449,119.218 454.552,121.003 466.326,122.712C464.194,136.301 462.245,148.869 460.415,160.522C470.711,161.552 480.761,162.578 490.576,163.561C503.888,155.392 517.656,146.938 531.913,138.196C538.883,142.398 545.552,146.489 551.989,150.392C544.551,162.009 537.607,172.857 531.102,183.004C537.069,185.851 542.822,188.635 548.4,191.307C559.963,186.506 571.711,181.629 583.646,176.668C585.857,181.508 587.979,186.141 590.008,190.586C580.918,199.281 572.305,207.506 564.143,215.31C566.43,218.785 568.62,222.143 570.742,225.374" style="fill:rgb(0,141,158);fill-rule:nonzero;"/>
                    </g>
                    <g transform="matrix(0.81623,0,0,0.81623,40.336,52.7932)">
                        <path d="M212.796,200.901C223.508,197.923 463.991,259.831 468.34,266.766C468.461,266.959 468.376,280.899 468.214,280.979C468.052,281.059 467.797,280.784 467.71,280.942C464.534,286.745 214.357,219.176 205.015,211.328C204.827,211.341 204.647,211.246 204.551,211.083C204.456,210.92 212.629,200.948 212.796,200.901Z" style="fill:rgb(255,121,32);"/>
                    </g>
                    <g transform="matrix(-0.0495682,0.814723,-0.814723,-0.0495682,585.669,27.3866)">
                        <path d="M113.923,299.469C114.061,325.042 135.734,346.714 153.446,346.36C171.157,346.005 171.629,334.906 178.478,334.788C185.326,334.67 196.543,342.345 198.787,352.736C201.03,363.126 207.17,374.934 222.638,376.941C238.106,378.948 263.821,374.352 272.82,327.94C281.086,285.314 265.381,253.67 217.207,249.656C169.032,245.641 113.674,253.31 113.923,299.469Z" style="fill:rgb(64,50,0);"/>
                    </g>
                </g>
                <g transform="matrix(0.81623,0,0,0.81623,19.822,15.1789)">
                    <g transform="matrix(480.319,0,0,480.319,695.85,452.295)">
                        <path d="M0.539,-0.237C0.535,-0.156 0.513,-0.094 0.471,-0.053C0.429,-0.011 0.369,0.01 0.293,0.01C0.254,0.01 0.218,0.003 0.188,-0.01C0.157,-0.023 0.131,-0.042 0.109,-0.068C0.088,-0.094 0.072,-0.125 0.061,-0.163C0.05,-0.201 0.044,-0.245 0.044,-0.294L0.044,-0.416C0.044,-0.465 0.05,-0.509 0.061,-0.547C0.073,-0.585 0.09,-0.617 0.111,-0.643C0.133,-0.668 0.16,-0.688 0.19,-0.701C0.221,-0.714 0.256,-0.721 0.295,-0.721C0.372,-0.721 0.431,-0.699 0.471,-0.656C0.512,-0.612 0.535,-0.55 0.54,-0.469L0.396,-0.469C0.395,-0.495 0.393,-0.516 0.389,-0.533C0.386,-0.55 0.38,-0.564 0.372,-0.574C0.364,-0.584 0.354,-0.591 0.342,-0.595C0.329,-0.599 0.313,-0.602 0.295,-0.602C0.276,-0.602 0.259,-0.598 0.246,-0.592C0.232,-0.585 0.221,-0.575 0.213,-0.56C0.204,-0.546 0.198,-0.527 0.194,-0.503C0.19,-0.48 0.188,-0.451 0.188,-0.417L0.188,-0.294C0.188,-0.261 0.19,-0.233 0.193,-0.209C0.196,-0.186 0.202,-0.167 0.21,-0.152C0.218,-0.137 0.229,-0.126 0.242,-0.12C0.256,-0.113 0.272,-0.109 0.293,-0.109C0.311,-0.109 0.326,-0.111 0.338,-0.115C0.351,-0.119 0.361,-0.125 0.369,-0.135C0.377,-0.144 0.383,-0.157 0.388,-0.174C0.392,-0.19 0.395,-0.211 0.396,-0.237L0.539,-0.237Z" style="fill:rgb(255,121,32);fill-rule:nonzero;"/>
                    </g>
                    <g transform="matrix(480.319,0,0,480.319,969.782,452.295)">
                        <path d="M0.301,0C0.299,-0.006 0.296,-0.012 0.295,-0.019C0.293,-0.026 0.291,-0.033 0.29,-0.041C0.279,-0.027 0.266,-0.015 0.249,-0.005C0.233,0.005 0.213,0.01 0.189,0.01C0.167,0.01 0.147,0.006 0.129,-0.001C0.11,-0.009 0.094,-0.02 0.08,-0.033C0.066,-0.047 0.055,-0.063 0.047,-0.083C0.039,-0.102 0.035,-0.124 0.035,-0.148C0.035,-0.175 0.039,-0.199 0.048,-0.22C0.057,-0.242 0.07,-0.26 0.087,-0.276C0.105,-0.291 0.126,-0.302 0.153,-0.311C0.179,-0.319 0.21,-0.323 0.245,-0.323L0.283,-0.323L0.283,-0.365C0.283,-0.389 0.279,-0.406 0.271,-0.416C0.262,-0.425 0.25,-0.43 0.235,-0.43C0.217,-0.43 0.204,-0.425 0.196,-0.414C0.187,-0.404 0.183,-0.389 0.183,-0.37L0.045,-0.37C0.045,-0.393 0.049,-0.414 0.058,-0.435C0.067,-0.455 0.08,-0.473 0.097,-0.488C0.114,-0.504 0.134,-0.516 0.158,-0.525C0.182,-0.534 0.209,-0.538 0.239,-0.538C0.265,-0.538 0.289,-0.535 0.312,-0.528C0.334,-0.521 0.353,-0.511 0.369,-0.497C0.385,-0.483 0.398,-0.465 0.407,-0.443C0.416,-0.421 0.421,-0.394 0.421,-0.363L0.421,-0.129C0.421,-0.114 0.421,-0.1 0.422,-0.088C0.423,-0.076 0.424,-0.066 0.426,-0.056C0.427,-0.046 0.429,-0.038 0.432,-0.03C0.434,-0.022 0.437,-0.015 0.44,-0.008L0.44,0L0.301,0ZM0.22,-0.099C0.235,-0.099 0.248,-0.102 0.259,-0.108C0.27,-0.114 0.278,-0.121 0.283,-0.13L0.283,-0.24L0.25,-0.24C0.237,-0.24 0.226,-0.238 0.216,-0.233C0.207,-0.229 0.199,-0.223 0.193,-0.216C0.186,-0.208 0.182,-0.2 0.178,-0.189C0.175,-0.179 0.174,-0.169 0.174,-0.157C0.174,-0.138 0.178,-0.123 0.186,-0.114C0.194,-0.104 0.205,-0.099 0.22,-0.099Z" style="fill:rgb(255,121,32);fill-rule:nonzero;"/>
                    </g>
                    <g transform="matrix(480.319,0,0,480.319,1195.87,452.295)">
                        <path d="M0.196,-0.528L0.196,0.028C0.196,0.089 0.182,0.134 0.154,0.166C0.127,0.198 0.087,0.213 0.037,0.213C0.026,0.213 0.015,0.213 0.005,0.211C-0.005,0.21 -0.015,0.208 -0.026,0.205L-0.026,0.092C-0.02,0.094 -0.013,0.095 -0.007,0.095C-0.001,0.096 0.005,0.097 0.01,0.097C0.026,0.097 0.038,0.091 0.045,0.08C0.053,0.069 0.057,0.052 0.057,0.028L0.057,-0.528L0.196,-0.528ZM0.048,-0.665C0.048,-0.676 0.05,-0.686 0.053,-0.695C0.057,-0.704 0.062,-0.711 0.068,-0.718C0.075,-0.724 0.083,-0.729 0.092,-0.733C0.101,-0.736 0.112,-0.738 0.123,-0.738C0.134,-0.738 0.145,-0.736 0.154,-0.733C0.163,-0.729 0.171,-0.724 0.178,-0.718C0.184,-0.711 0.189,-0.704 0.193,-0.695C0.196,-0.686 0.198,-0.676 0.198,-0.665C0.198,-0.654 0.196,-0.644 0.193,-0.635C0.189,-0.627 0.184,-0.619 0.178,-0.612C0.171,-0.605 0.163,-0.6 0.154,-0.597C0.145,-0.593 0.134,-0.591 0.123,-0.591C0.112,-0.591 0.101,-0.593 0.092,-0.597C0.083,-0.6 0.075,-0.605 0.068,-0.612C0.062,-0.619 0.057,-0.627 0.053,-0.635C0.05,-0.644 0.048,-0.654 0.048,-0.665Z" style="fill:rgb(255,121,32);fill-rule:nonzero;"/>
                    </g>
                    <g transform="matrix(480.319,0,0,480.319,1313.84,452.295)">
                        <path d="M0.31,-0.048C0.296,-0.03 0.28,-0.015 0.261,-0.005C0.242,0.005 0.22,0.01 0.195,0.01C0.173,0.01 0.153,0.006 0.135,-0.001C0.116,-0.009 0.101,-0.02 0.088,-0.036C0.075,-0.052 0.065,-0.072 0.058,-0.097C0.05,-0.122 0.047,-0.152 0.047,-0.187L0.047,-0.528L0.185,-0.528L0.185,-0.186C0.185,-0.157 0.19,-0.136 0.199,-0.124C0.209,-0.112 0.221,-0.105 0.236,-0.105C0.253,-0.105 0.267,-0.109 0.278,-0.116C0.289,-0.124 0.298,-0.134 0.305,-0.146L0.305,-0.528L0.444,-0.528L0.444,0L0.314,0L0.31,-0.048Z" style="fill:rgb(255,121,32);fill-rule:nonzero;"/>
                    </g>
                    <g transform="matrix(480.319,0,0,480.319,1550.25,452.295)">
                        <path d="M0.418,-0.175C0.418,-0.194 0.415,-0.212 0.41,-0.227C0.405,-0.242 0.397,-0.256 0.385,-0.268C0.372,-0.28 0.356,-0.292 0.335,-0.302C0.315,-0.313 0.289,-0.323 0.259,-0.333C0.229,-0.344 0.202,-0.355 0.178,-0.366C0.154,-0.378 0.134,-0.392 0.117,-0.408C0.1,-0.424 0.087,-0.442 0.078,-0.463C0.069,-0.484 0.064,-0.509 0.064,-0.537C0.064,-0.564 0.069,-0.589 0.079,-0.612C0.089,-0.634 0.103,-0.654 0.12,-0.67C0.138,-0.686 0.159,-0.698 0.184,-0.707C0.208,-0.716 0.236,-0.721 0.265,-0.721C0.297,-0.721 0.326,-0.715 0.351,-0.704C0.376,-0.693 0.398,-0.678 0.416,-0.659C0.434,-0.639 0.448,-0.617 0.457,-0.591C0.466,-0.565 0.471,-0.537 0.471,-0.508L0.415,-0.508C0.415,-0.531 0.412,-0.552 0.405,-0.572C0.398,-0.591 0.389,-0.608 0.376,-0.623C0.363,-0.637 0.348,-0.648 0.329,-0.656C0.311,-0.664 0.289,-0.668 0.265,-0.668C0.241,-0.668 0.22,-0.665 0.202,-0.658C0.184,-0.651 0.169,-0.642 0.157,-0.63C0.145,-0.618 0.136,-0.604 0.129,-0.588C0.123,-0.572 0.12,-0.556 0.12,-0.538C0.12,-0.521 0.123,-0.505 0.128,-0.491C0.134,-0.477 0.142,-0.464 0.155,-0.452C0.167,-0.44 0.183,-0.428 0.203,-0.418C0.223,-0.407 0.248,-0.397 0.277,-0.388C0.309,-0.377 0.337,-0.366 0.362,-0.353C0.386,-0.341 0.407,-0.326 0.424,-0.31C0.44,-0.293 0.453,-0.274 0.462,-0.252C0.47,-0.23 0.475,-0.204 0.475,-0.176C0.475,-0.147 0.469,-0.121 0.459,-0.098C0.449,-0.075 0.435,-0.056 0.417,-0.04C0.398,-0.024 0.377,-0.011 0.352,-0.003C0.326,0.006 0.299,0.01 0.269,0.01C0.242,0.01 0.216,0.006 0.189,-0.002C0.162,-0.011 0.138,-0.023 0.117,-0.04C0.096,-0.057 0.079,-0.079 0.065,-0.106C0.052,-0.133 0.045,-0.165 0.045,-0.203L0.101,-0.203C0.101,-0.173 0.106,-0.148 0.116,-0.127C0.126,-0.107 0.139,-0.09 0.155,-0.078C0.171,-0.065 0.189,-0.056 0.209,-0.05C0.229,-0.045 0.249,-0.042 0.269,-0.042C0.292,-0.042 0.312,-0.045 0.331,-0.052C0.349,-0.058 0.365,-0.067 0.378,-0.078C0.391,-0.09 0.4,-0.104 0.407,-0.12C0.414,-0.136 0.418,-0.155 0.418,-0.175Z" style="fill:rgb(0,141,158);fill-rule:nonzero;"/>
                    </g>
                    <g transform="matrix(480.319,0,0,480.319,1798.61,452.295)">
                        <path d="M0.239,-0.041C0.254,-0.041 0.269,-0.042 0.283,-0.046C0.297,-0.05 0.309,-0.057 0.32,-0.066C0.331,-0.076 0.34,-0.088 0.347,-0.104C0.354,-0.12 0.358,-0.14 0.359,-0.164L0.411,-0.164C0.41,-0.135 0.404,-0.11 0.395,-0.089C0.386,-0.067 0.373,-0.049 0.357,-0.034C0.342,-0.02 0.324,-0.009 0.304,-0.001C0.284,0.006 0.262,0.01 0.239,0.01C0.176,0.01 0.128,-0.011 0.096,-0.052C0.064,-0.093 0.048,-0.154 0.048,-0.234L0.048,-0.294C0.048,-0.375 0.064,-0.436 0.096,-0.477C0.128,-0.518 0.176,-0.538 0.239,-0.538C0.263,-0.538 0.285,-0.534 0.306,-0.527C0.327,-0.519 0.344,-0.507 0.36,-0.492C0.375,-0.476 0.387,-0.457 0.396,-0.433C0.405,-0.41 0.41,-0.382 0.411,-0.35L0.359,-0.35C0.358,-0.375 0.354,-0.395 0.348,-0.413C0.341,-0.43 0.333,-0.444 0.322,-0.456C0.311,-0.467 0.299,-0.475 0.285,-0.48C0.271,-0.485 0.255,-0.487 0.239,-0.487C0.214,-0.487 0.193,-0.483 0.175,-0.474C0.158,-0.466 0.144,-0.453 0.133,-0.437C0.123,-0.42 0.115,-0.4 0.11,-0.376C0.105,-0.352 0.103,-0.325 0.103,-0.294L0.103,-0.234C0.103,-0.203 0.105,-0.176 0.11,-0.152C0.114,-0.128 0.122,-0.108 0.133,-0.091C0.144,-0.075 0.158,-0.062 0.175,-0.053C0.192,-0.045 0.214,-0.041 0.239,-0.041Z" style="fill:rgb(0,141,158);fill-rule:nonzero;"/>
                    </g>
                    <g transform="matrix(480.319,0,0,480.319,2016.49,452.295)">
                        <path d="M0.279,-0.478C0.274,-0.479 0.268,-0.479 0.263,-0.48C0.258,-0.481 0.252,-0.481 0.245,-0.481C0.229,-0.481 0.215,-0.478 0.202,-0.472C0.189,-0.467 0.178,-0.459 0.168,-0.448C0.158,-0.438 0.15,-0.426 0.143,-0.412C0.136,-0.397 0.13,-0.382 0.126,-0.365L0.126,0L0.072,0L0.072,-0.528L0.125,-0.528L0.126,-0.449C0.139,-0.477 0.154,-0.499 0.174,-0.514C0.194,-0.53 0.219,-0.538 0.248,-0.538C0.253,-0.538 0.26,-0.537 0.266,-0.536C0.273,-0.535 0.277,-0.533 0.28,-0.532L0.279,-0.478Z" style="fill:rgb(0,141,158);fill-rule:nonzero;"/>
                    </g>
                    <g transform="matrix(480.319,0,0,480.319,2161.67,452.295)">
                        <path d="M0.133,0L0.078,0L0.078,-0.528L0.133,-0.528L0.133,0ZM0.07,-0.681C0.07,-0.692 0.073,-0.701 0.08,-0.709C0.086,-0.717 0.095,-0.721 0.106,-0.721C0.117,-0.721 0.126,-0.717 0.133,-0.709C0.139,-0.701 0.142,-0.692 0.142,-0.681C0.142,-0.67 0.139,-0.66 0.133,-0.653C0.126,-0.645 0.117,-0.641 0.106,-0.641C0.095,-0.641 0.086,-0.645 0.08,-0.653C0.073,-0.66 0.07,-0.67 0.07,-0.681Z" style="fill:rgb(0,141,158);fill-rule:nonzero;"/>
                    </g>
                    <g transform="matrix(480.319,0,0,480.319,2262.75,452.295)">
                        <path d="M0.433,-0.239C0.433,-0.197 0.429,-0.16 0.421,-0.128C0.413,-0.097 0.403,-0.071 0.388,-0.051C0.374,-0.03 0.356,-0.015 0.335,-0.005C0.314,0.005 0.29,0.01 0.263,0.01C0.231,0.01 0.204,0.003 0.181,-0.01C0.159,-0.022 0.14,-0.04 0.126,-0.063L0.126,0.203L0.072,0.203L0.072,-0.528L0.122,-0.528L0.125,-0.456C0.139,-0.482 0.158,-0.502 0.18,-0.516C0.203,-0.531 0.23,-0.538 0.262,-0.538C0.289,-0.538 0.313,-0.533 0.334,-0.524C0.356,-0.514 0.374,-0.5 0.388,-0.479C0.403,-0.459 0.414,-0.434 0.421,-0.402C0.429,-0.371 0.433,-0.333 0.433,-0.289L0.433,-0.239ZM0.378,-0.289C0.378,-0.356 0.368,-0.406 0.347,-0.438C0.326,-0.47 0.293,-0.486 0.249,-0.486C0.232,-0.486 0.217,-0.483 0.204,-0.479C0.191,-0.474 0.179,-0.468 0.169,-0.459C0.159,-0.451 0.151,-0.442 0.144,-0.432C0.137,-0.421 0.131,-0.41 0.126,-0.398L0.126,-0.12C0.131,-0.109 0.138,-0.098 0.145,-0.088C0.153,-0.079 0.162,-0.07 0.172,-0.063C0.182,-0.056 0.193,-0.05 0.206,-0.046C0.219,-0.042 0.234,-0.041 0.25,-0.041C0.293,-0.041 0.326,-0.057 0.347,-0.089C0.368,-0.122 0.378,-0.172 0.378,-0.239L0.378,-0.289Z" style="fill:rgb(0,141,158);fill-rule:nonzero;"/>
                    </g>
                    <g transform="matrix(480.319,0,0,480.319,2496.34,452.295)">
                        <path d="M0.154,-0.663L0.154,-0.528L0.244,-0.528L0.244,-0.479L0.154,-0.479L0.154,-0.128C0.154,-0.11 0.155,-0.095 0.158,-0.084C0.162,-0.073 0.166,-0.064 0.171,-0.058C0.176,-0.052 0.182,-0.048 0.189,-0.046C0.195,-0.044 0.202,-0.042 0.21,-0.042C0.217,-0.042 0.224,-0.043 0.231,-0.044C0.238,-0.045 0.244,-0.046 0.249,-0.047L0.25,0.001C0.245,0.004 0.237,0.006 0.227,0.008C0.218,0.009 0.208,0.01 0.197,0.01C0.183,0.01 0.17,0.007 0.158,0.003C0.147,-0.002 0.136,-0.009 0.127,-0.02C0.119,-0.031 0.112,-0.045 0.107,-0.063C0.102,-0.08 0.1,-0.103 0.1,-0.129L0.1,-0.479L0.018,-0.479L0.018,-0.528L0.1,-0.528L0.1,-0.663L0.154,-0.663Z" style="fill:rgb(0,141,158);fill-rule:nonzero;"/>
                    </g>
                </g>
            </g>
        </g>
    </g>
    <defs>
        <linearGradient id="_Linear1" x1="0" y1="0" x2="1" y2="0" gradientUnits="userSpaceOnUse" gradientTransform="matrix(226.547,51.2606,-51.2606,226.547,367.192,311.123)"><stop offset="0" style="stop-color:rgb(255,121,32);stop-opacity:1"/><stop offset="1" style="stop-color:rgb(255,121,32);stop-opacity:1"/></linearGradient>
    </defs>
</svg>
